# xmcd
# Track frame offsets:
# 150
# 16588
# 35302
# 49858
# 64839
# 80986
# 97896
# 115018
# 130182
# 143372
# 161522
# 181401
# 193511
# 208361
# 224905
#
# Disc length: 3199 seconds
# Revision: 0
# Processed by: cddbd v1.5.1PL0 Copyright (c) Steve Scherf et al.
# Submitted via: VisiTrax 2.9.10.228 - For more info visit www.synapsa.com
#
DISCID=d30c7d0f
DTITLE=Bailey, Razzy - CB90112
DYEAR=1900
DGENRE=Karaoke
TTITLE0=Friends
TTITLE1=I Keep Coming Back
TTITLE2=Loving Up A Storm
TTITLE3=Midnight Hauler
TTITLE4=She Left Love All Over Me
TTITLE5=I Can't Get Enough Of You
TTITLE6=Tonight She's Gonna Love Me
TTITLE7=I Ain't Got No Business Doin' Business
TTITLE8=If Love Had A Face
TTITLE9=Scratch My Back (And Whisper In My Ear)
TTITLE10=Everytime You Cross My Mind
TTITLE11=Love's Gonna Fall Here Tonight
TTITLE12=What Time Do You Have To Be Back To
TTITLE13=Anywhere There's A Jukebox
TTITLE14=Too Old To Play Cowboy
EXTD=letazz
EXTT0=
EXTT1=
EXTT2=
EXTT3=
EXTT4=
EXTT5=
EXTT6=
EXTT7=
EXTT8=
EXTT9=
EXTT10=
EXTT11=
EXTT12=
EXTT13=
EXTT14=
PLAYORDER=
